# xmcd
#
# Track frame offsets:
#	150
#	15487
#	28670
#	48150
#	72200
#	84200
#	97007
#	119785
#	134850
#	150525
#	165315
#	175145
#	190500
#	205242
#	216890
#	227957
#	245255
#	262275
#	278200
#	290875
#	299487
#
# Disc length: 4121 seconds
#
# Revision: 1
# Processed by: cddbd v1.5.1PL0 Copyright (c) Steve Scherf et al.
# Submitted via: CDex 1.50Beta5
#
DISCID=3f101715
DTITLE=ヴィヴァルディ - クラシック名曲選(33)
DYEAR=1900
DGENRE=Classical
TTITLE0=協奏曲集 「四季」 作品8 協奏曲 第1番 ホ長調 RV269 「春」 第1楽章 アレグロ
TTITLE1=協奏曲集 「四季」 作品8 協奏曲 第1番 ホ長調 RV269 「春」 第2楽章 ラルゴ
TTITLE2=協奏曲集 「四季」 作品8 協奏曲 第1番 ホ長調 RV269 「春」 第3楽章 アレグロ (田園舞曲)
TTITLE3=協奏曲集 「四季」 作品8 協奏曲 第2番 ト短調 RV315 「夏」 第1楽章 アレグロ・ノン・モルト・アレグロ
TTITLE4=協奏曲集 「四季」 作品8 協奏曲 第2番 ト短調 RV315 「夏」 第2楽章 アダージョ・プレスト・アダージョ
TTITLE5=協奏曲集 「四季」 作品8 協奏曲 第2番 ト短調 RV315 「夏」 第3楽章 プレスト (激しい夏のテンポで)
TTITLE6=協奏曲集 「四季」 作品8 協奏曲 第3番 ヘ長調 RV293 「秋」 第1楽章 アレグロ (村人たちの踊りと歌)
TTITLE7=協奏曲集 「四季」 作品8 協奏曲 第3番 ヘ長調 RV293 「秋」 第2楽章 アダージョ・モルト (眠っている酔漢)
TTITLE8=協奏曲集 「四季」 作品8 協奏曲 第3番 ヘ長調 RV293 「秋」 第3楽章 アレグロ (狩)
TTITLE9=協奏曲集 「四季」 作品8 協奏曲 第4番 ヘ短調 RV297 「冬」 第1楽章 アレグロ・ノン・モルト
TTITLE10=協奏曲集 「四季」 作品8 協奏曲 第4番 ヘ短調 RV297 「冬」 第2楽章 ラルゴ
TTITLE11=協奏曲集 「四季」 作品8 協奏曲 第4番 ヘ短調 RV297 「冬」 第3楽章 アレグロ
TTITLE12=協奏曲集 「調和の幻想」 作品3より 協奏曲 第6番 イ短調 RV356 第1楽章 アレグロ
TTITLE13=協奏曲集 「調和の幻想」 作品3より 協奏曲 第6番 イ短調 RV356 第2楽章 ラルゴ
TTITLE14=協奏曲集 「調和の幻想」 作品3より 協奏曲 第6番 イ短調 RV356 第3楽章 プレスト
TTITLE15=協奏曲集 「調和の幻想」 作品3より 協奏曲 第8番 イ短調 RV522 第1楽章 アレグロ
TTITLE16=協奏曲集 「調和の幻想」 作品3より 協奏曲 第8番 イ短調 RV522 第2楽章 ラルゲット
TTITLE17=協奏曲集 「調和の幻想」 作品3より 協奏曲 第8番 イ短調 RV522 第3楽章 アレグロ
TTITLE18=協奏曲集 「調和の幻想」 作品3より フルート協奏曲 第1番 ヘ長調 RV433 「海の嵐」 第1楽章 アレグロ
TTITLE19=協奏曲集 「調和の幻想」 作品3より フルート協奏曲 第1番 ヘ長調 RV433 「海の嵐」 第2楽章 ラルゴ
TTITLE20=協奏曲集 「調和の幻想」 作品3より フルート協奏曲 第1番 ヘ長調 RV433 「海の嵐」 第3楽章 プレスト
EXTD=
EXTT0=
EXTT1=
EXTT2=
EXTT3=
EXTT4=
EXTT5=
EXTT6=
EXTT7=
EXTT8=
EXTT9=
EXTT10=
EXTT11=
EXTT12=
EXTT13=
EXTT14=
EXTT15=
EXTT16=
EXTT17=
EXTT18=
EXTT19=
EXTT20=
PLAYORDER=
